#!OML:ASF E:\motion texture\Top Level 1\Subject 1\Session 1\male.ASF
:FULLY-SPECIFIED
:DEGREES
243
root -1.40568 18.1892 3.71586 472.823 -77.0166 -475.55
lowerback 6.42184 2.13841 9.92318
upperback -0.17538 3.60347 3.95406
thorax -3.43782 1.58303 -1.74343
lowerneck -18.3085 -5.36051 -6.6276
upperneck 13.6102 -6.78054 6.72634
head 7.65635 -2.96368 2.47795
rclavicle -2.74501e-014 -4.13472e-014
rhumerus 12.9641 22.7813 -79.6356
rradius 77.3405
rwrist -4.50996
rhand -13.1314 -8.16372
rfingers 7.12502
rthumb 12.9665 -37.7408
lclavicle -2.74501e-014 -4.13472e-014
lhumerus -55.259 8.3984 58.983
lradius 26.7412
lwrist -19.4327
lhand -6.64343 7.82863
lfingers 7.12502
lthumb 19.2137 36.8995
rfemur 5.49644 7.37558 39.1811
rtibia 19.3463
rfoot 350.193 -3.87374
rtoes 11.1364
lfemur -91.3821 5.75626 -10.4664
ltibia 61.7199
lfoot 187.113 7.5185
ltoes -1.27835
244
root -1.53403 18.1941 3.71277 472.98 -77.045 -475.68
lowerback 6.3897 2.17083 9.82501
upperback -0.141182 3.63264 3.93075
thorax -3.38499 1.60307 -1.71426
lowerneck -18.3991 -5.3969 -6.66962
upperneck 13.5749 -6.82389 6.79536
head 7.66739 -2.97826 2.50048
rclavicle -9.25436e-015 -2.98177e-016
rhumerus 12.5937 22.5351 -79.8262
rradius 77.265
rwrist -4.51045
rhand -13.1937 -8.17249
rfingers 7.12502
rthumb 12.9065 -37.7534
lclavicle -9.25436e-015 -2.98177e-016
lhumerus -55.4357 8.21384 59.2562
lradius 27.1008
lwrist -18.7671
lhand -6.46658 7.68269
lfingers 7.12502
lthumb 19.3838 36.7366
rfemur 5.809 7.38166 39.1322
rtibia 19.5278
rfoot 350.169 -3.7354
rtoes 10.4358
lfemur -91.4258 5.68454 -10.4741
ltibia 63.0055
lfoot 187.071 7.65283
ltoes -1.5948
245
root -1.66234 18.1981 3.70992 473.171 -77.0726 -475.81
lowerback 6.32401 2.20467 9.72979
upperback -0.116013 3.66042 3.90536
thorax -3.32269 1.62256 -1.68731
lowerneck -18.4688 -5.42681 -6.70187
upperneck 13.5191 -6.85997 6.85908
head 7.66704 -2.98997 2.52098
rclavicle 2.46978e-014 4.75095e-014
rhumerus 12.1281 22.2866 -80.0621
rradius 77.1965
rwrist -4.52348
rhand -13.2333 -8.18681
rfingers 7.12502
rthumb 12.8683 -37.7701
lclavicle 2.46978e-014 4.75095e-014
lhumerus -55.5715 8.00534 59.6228
lradius 27.4775
lwrist -18.1196
lhand -6.31812 7.58391
lfingers 7.12502
lthumb 19.5265 36.6234
rfemur 6.07902 7.37579 39.0739
rtibia 19.7145
rfoot 350.14 -3.6026
rtoes 9.67228
lfemur -91.3348 5.64444 -10.4796
ltibia 64.3728
lfoot 187.107 7.80234
ltoes -1.98894
246
root -1.79126 18.2009 3.70746 473.387 -77.0891 -475.917
lowerback 6.20956 2.23894 9.65325
upperback -0.105309 3.68508 3.87931
thorax -3.24737 1.64032 -1.66892
lowerneck -18.5187 -5.45237 -6.72688
upperneck 13.4581 -6.89161 6.91559
head 7.66078 -3.00038 2.53885
rclavicle -1.0006e-014 -4.6615e-014
rhumerus 11.5757 22.0413 -80.3391
rradius 77.1235
rwrist -4.52829
rhand -13.2353 -8.20105
rfingers 7.12502
rthumb 12.8664 -37.7845
lclavicle -1.0006e-014 -4.6615e-014
lhumerus -55.6682 7.78 60.0682
lradius 27.8542
lwrist -17.5415
lhand -6.24087 7.49953
lfingers 7.12502
lthumb 19.6008 36.5314
rfemur 6.30451 7.36283 39.0166
rtibia 19.8905
rfoot 350.112 -3.46812
rtoes 8.94885
lfemur -91.1316 5.63902 -10.4713
ltibia 65.8139
lfoot 187.223 7.97169
ltoes -2.44595
247
root -1.92078 18.2022 3.70533 473.607 -77.0955 -475.978
lowerback 6.04794 2.2719 9.59818
upperback -0.116797 3.7055 3.85185
thorax -3.16789 1.65522 -1.66152
lowerneck -18.5426 -5.47025 -6.74417
upperneck 13.3973 -6.9156 6.96692
head 7.6492 -3.00786 2.55518
rclavicle -3.47159e-014 -4.41302e-014
rhumerus 10.9376 21.8028 -80.6516
rradius 77.0439
rwrist -4.51428
rhand -13.1956 -8.2143
rfingers 7.12502
rthumb 12.9047 -37.7953
lclavicle -3.47159e-014 -4.41302e-014
lhumerus -55.7279 7.54063 60.5777
lradius 28.2192
lwrist -17.0608
lhand -6.23216 7.43127
lfingers 7.12502
lthumb 19.6092 36.4623
rfemur 6.4816 7.33394 38.9588
rtibia 20.0538
rfoot 350.078 -3.32626
rtoes 8.28762
lfemur -90.8289 5.66473 -10.4484
ltibia 67.3279
lfoot 187.428 8.15041
ltoes -2.90562
248
root -2.05102 18.2017 3.70343 473.833 -77.086 -475.989
lowerback 5.8379 2.30447 9.56863
upperback -0.150981 3.72292 3.82538
thorax -3.08379 1.66777 -1.66486
lowerneck -18.548 -5.48255 -6.75542
upperneck 13.3458 -6.93426 7.01199
head 7.6367 -3.01346 2.56946
rclavicle 5.53831e-015 -6.70898e-015
rhumerus 10.2254 21.5728 -80.9873
rradius 76.9486
rwrist -4.47566
rhand -13.1014 -8.22569
rfingers 7.12502
rthumb 12.9954 -37.8009
lclavicle 5.53831e-015 -6.70898e-015
lhumerus -55.7397 7.30106 61.1398
lradius 28.5609
lwrist -16.6866
lhand -6.28698 7.37405
lfingers 7.12502
lthumb 19.5565 36.4105
rfemur 6.6147 7.30035 38.9096
rtibia 20.1956
rfoot 350.038 -3.17745
rtoes 7.73338
lfemur -90.4353 5.72732 -10.4053
ltibia 68.9137
lfoot 187.718 8.35847
ltoes -3.32524
